<?xml version="1.0" standalone="no"?>
<!DOCTYPE svg PUBLIC "-//W3C//DTD SVG 20010904//EN"
 "http://www.w3.org/TR/2001/REC-SVG-20010904/DTD/svg10.dtd">
<svg version="1.0" xmlns="http://www.w3.org/2000/svg"
 width="1224.000000pt" height="1224.000000pt" viewBox="0 0 1224.000000 1224.000000"
 preserveAspectRatio="xMidYMid meet">
<metadata>
Created by potrace 1.11, written by Peter Selinger 2001-2013
</metadata>
<g transform="translate(0.000000,1224.000000) scale(0.100000,-0.100000)"
fill="#000000" stroke="none">
<path d="M0 6120 l0 -4590 6120 0 6120 0 0 4590 0 4590 -6120 0 -6120 0 0
-4590z m6890 3440 c1871 -28 2947 -129 3345 -314 82 -39 260 -155 326 -214 87
-77 219 -291 283 -458 174 -452 236 -1087 237 -2414 0 -1326 -63 -1962 -237
-2414 -66 -171 -195 -379 -288 -463 -70 -63 -295 -205 -371 -233 -155 -57
-365 -105 -635 -145 -818 -121 -2725 -191 -4257 -155 -1796 42 -2781 135
-3227 304 -66 25 -261 141 -360 215 -26 20 -77 76 -112 124 -158 221 -264 509
-323 878 -135 843 -135 2935 0 3778 66 414 208 766 383 949 51 55 275 204 373
249 383 177 1545 287 3303 312 812 12 831 12 1560 1z"/>
<path d="M3710 8555 c-369 -51 -693 -208 -967 -469 -398 -380 -645 -926 -730
-1616 -22 -182 -25 -719 -5 -905 63 -576 232 -1050 501 -1404 378 -496 934
-748 1608 -728 211 6 352 29 528 88 628 209 1060 758 1226 1559 21 102 49 296
49 342 l0 28 -612 -2 -612 -3 -17 -101 c-45 -276 -153 -501 -292 -607 -109
-83 -248 -123 -393 -113 -417 28 -632 301 -706 896 -21 167 -17 721 5 890 92
684 349 1003 774 960 314 -32 519 -251 594 -633 10 -54 19 -111 19 -127 l0
-30 610 0 c336 0 610 1 610 3 0 1 -7 56 -15 121 -72 579 -254 1015 -553 1327
-251 262 -542 418 -922 493 -223 45 -508 57 -700 31z"/>
<path d="M7960 8556 c-733 -107 -1294 -633 -1559 -1461 -234 -731 -208 -1717
64 -2395 208 -519 531 -880 975 -1088 373 -176 856 -229 1278 -142 711 148
1238 751 1407 1610 21 107 55 330 55 360 0 6 -226 10 -615 10 l-615 0 -4 -22
c-3 -13 -12 -66 -20 -119 -26 -164 -88 -331 -165 -443 -142 -206 -394 -289
-666 -220 -273 69 -445 296 -524 691 -40 200 -59 581 -41 853 31 495 130 813
313 1008 112 119 235 173 398 174 125 0 196 -15 294 -62 190 -91 319 -279 375
-544 11 -50 20 -105 20 -123 0 -68 -51 -63 616 -63 477 0 604 3 604 13 0 33
-32 271 -45 339 -181 942 -712 1491 -1560 1614 -148 21 -469 27 -585 10z"/>
</g>
</svg>
